<svg xmlns="http://www.w3.org/2000/svg" width="192" height="192" viewBox="0 0 192 192">
  <rect width="192" height="192" rx="42" fill="#1E3A8A"/>
  <path d="M50 44h92c9 0 16 7 16 16v69c0 8-6 14-14 15l-4 12c-1 4-5 7-9 7h-7c-5 0-9-4-9-9v-9H77v9c0 5-4 9-9 9h-7c-4 0-8-3-9-7l-4-12c-8-1-14-7-14-15V60c0-9 7-16 16-16Z" fill="#fff"/>
  <rect x="50" y="59" width="92" height="47" rx="8" fill="#3B5FD4"/>
  <circle cx="64" cy="126" r="9" fill="#1E3A8A"/>
  <circle cx="128" cy="126" r="9" fill="#1E3A8A"/>
  <path d="M78 122h36" stroke="#1E3A8A" stroke-width="7" stroke-linecap="round"/>
</svg>
